<?xml version="1.0" standalone="no"?>
<!DOCTYPE svg PUBLIC "-//W3C//DTD SVG 20010904//EN"
 "http://www.w3.org/TR/2001/REC-SVG-20010904/DTD/svg10.dtd">
<svg version="1.0" xmlns="http://www.w3.org/2000/svg"
 width="512.000000pt" height="512.000000pt" viewBox="0 0 512.000000 512.000000"
 preserveAspectRatio="xMidYMid meet">

<g transform="translate(0.000000,512.000000) scale(0.100000,-0.100000)"
fill="#000000" stroke="none">
<path d="M3616 3684 c-331 -80 -551 -425 -484 -758 l11 -58 -392 -392 -393
-393 -70 -1 c-70 -2 -143 -16 -152 -30 -3 -5 60 -73 140 -153 80 -79 152 -159
160 -178 35 -82 5 -188 -66 -240 -50 -36 -93 -46 -156 -36 -43 6 -59 19 -207
160 -89 84 -165 152 -168 149 -17 -10 -31 -124 -26 -204 15 -251 209 -450 457
-467 288 -20 539 211 540 497 l0 65 388 387 387 388 40 -12 c22 -6 90 -11 150
-11 91 0 124 4 190 26 332 109 529 453 446 779 -50 194 -172 342 -359 437
-113 57 -305 77 -436 45z"/>
<path d="M1038 3167 c-342 -119 -449 -539 -207 -810 113 -127 285 -187 449
-157 116 21 120 10 -72 206 -95 96 -179 187 -187 202 -22 41 -20 130 5 177 29
55 90 97 152 103 90 8 111 -5 308 -200 l182 -180 16 71 c29 126 17 223 -40
339 -48 99 -122 170 -232 225 -83 41 -89 42 -196 45 -95 2 -121 -1 -178 -21z"/>
</g>
</svg>
